<svg width="50" height="50" viewBox="0 0 50 50" fill="none" xmlns="http://www.w3.org/2000/svg">
<path fill-rule="evenodd" clip-rule="evenodd" d="M23.4861 25.676C23.5849 25.9083 23.7294 26.119 23.9112 26.296L42 43.8782C37.544 47.6873 31.74 50 25.3945 50C11.3924 50 0 38.7641 0 24.9545C0 11.8308 10.2938 1.038 23.3357 0V24.9423C23.3362 25.1943 23.3873 25.4436 23.4861 25.676ZM49.9616 21.9719L28 22.023V0C39.6224 0.850041 48.9534 10.2155 49.9616 21.9719ZM44.3973 40L30.4274 26.0149L50 25.9698C49.657 31.3013 47.6081 36.1643 44.3973 40Z" fill="white"/>
</svg>
