<svg width="50" height="50" viewBox="0 0 50 50" fill="none" xmlns="http://www.w3.org/2000/svg">
<path d="M43.3193 0H6.68006C4.90892 0.00204828 3.21092 0.706578 1.9586 1.95902C0.706269 3.21146 0.00189047 4.90952 0 6.68065V43.3193C0.00189047 45.0905 0.706269 46.7885 1.9586 48.041C3.21092 49.2934 4.90892 49.998 6.68006 50H43.3193C45.0906 49.998 46.7887 49.2935 48.0411 48.0411C49.2935 46.7887 49.998 45.0906 50 43.3193V6.68065C49.9981 4.90941 49.2936 3.21126 48.0412 1.95881C46.7887 0.706351 45.0906 0.00189075 43.3193 0V0ZM43.5512 22.7863C43.1146 25.3495 41.8897 27.7128 40.047 29.5473L38.4506 31.144L25.0509 44.1699L11.4405 30.9321L10.0554 29.547C8.88658 28.3787 7.95944 26.9915 7.32688 25.4647C6.69432 23.938 6.36874 22.3016 6.36874 20.649C6.36874 18.9964 6.69432 17.3599 7.32688 15.8332C7.95944 14.3064 8.88658 12.9193 10.0554 11.7509C14.3018 7.50387 20.5399 8.3003 25.0512 10.9524C29.5628 8.3003 35.8012 7.50446 40.047 11.7515C41.47 13.1772 42.5307 14.9231 43.1404 16.843C43.75 18.7628 43.8909 20.8008 43.5512 22.7863V22.7863ZM26.236 15.0512L25.0512 15.8929L23.8667 15.0509C22.0512 13.7595 19.7205 12.8485 17.5045 12.8485C16.6631 12.8255 15.8257 12.9726 15.0425 13.2809C14.2593 13.5892 13.5464 14.0525 12.9464 14.6429C12.1566 15.4312 11.53 16.3675 11.1025 17.3983C10.675 18.429 10.4549 19.534 10.4549 20.6499C10.4549 21.7657 10.675 22.8707 11.1025 23.9014C11.53 24.9322 12.1566 25.8685 12.9464 26.6568L14.3116 28.022L25.0521 38.4685L35.5801 28.2342L37.156 26.6568C37.9452 25.8682 38.5713 24.9317 38.9985 23.901C39.4256 22.8703 39.6455 21.7654 39.6455 20.6497C39.6455 19.534 39.4256 18.4291 38.9985 17.3984C38.5713 16.3677 37.9452 15.4312 37.156 14.6426C34.2027 11.6884 29.425 12.7839 26.236 15.0512V15.0512ZM29.1268 27.0452H27.0955V29.0765C27.0955 29.6187 26.8802 30.1387 26.4968 30.5221C26.1134 30.9054 25.5934 31.1208 25.0512 31.1208C24.509 31.1208 23.9891 30.9053 23.6058 30.522C23.2225 30.1386 23.0071 29.6186 23.0071 29.0765V27.0452H20.9759C20.7073 27.0452 20.4414 26.9923 20.1934 26.8895C19.9453 26.7867 19.7199 26.6361 19.53 26.4461C19.3402 26.2562 19.1896 26.0307 19.0869 25.7826C18.9842 25.5345 18.9314 25.2685 18.9315 25C18.9315 24.4578 19.1469 23.9378 19.5303 23.5544C19.9137 23.171 20.4337 22.9557 20.9759 22.9557H23.006V20.9244C23.006 20.3823 23.2213 19.8623 23.6046 19.4789C23.9879 19.0956 24.5079 18.8801 25.05 18.8801C25.5922 18.8801 26.1122 19.0954 26.4956 19.4788C26.879 19.8622 27.0943 20.3822 27.0943 20.9244V22.9557H29.1256C29.3942 22.9555 29.6601 23.0083 29.9083 23.1109C30.1565 23.2136 30.382 23.3642 30.5719 23.554C30.7619 23.7439 30.9126 23.9693 31.0154 24.2174C31.1182 24.4655 31.1711 24.7314 31.1711 25C31.1711 25.5422 30.9557 26.0622 30.5724 26.4456C30.189 26.829 29.669 27.0443 29.1268 27.0443V27.0452Z" fill="white"/>
</svg>
