<svg width="50" height="50" viewBox="0 0 50 50" fill="none" xmlns="http://www.w3.org/2000/svg">
<path fill-rule="evenodd" clip-rule="evenodd" d="M15.1005 23.8995C12.475 21.274 11 17.713 11 14C11 10.287 12.475 6.72601 15.1005 4.1005C17.726 1.475 21.287 0 25 0C28.7131 0 32.274 1.475 34.8995 4.1005C37.525 6.72601 39 10.287 39 14C39 17.713 37.525 21.274 34.8995 23.8995C34.8662 23.9328 34.8327 23.966 34.799 23.999C34.9697 24.0716 35.1396 24.1462 35.3087 24.2227C38.5267 25.6782 41.3994 27.7985 43.7377 30.4441C46.076 33.0896 47.8268 36.2002 48.8746 39.571C49.9225 42.9418 50.2436 46.4962 49.8169 50L0.16694 49.864C-0.240536 46.3579 0.100112 42.8053 1.16644 39.4403C2.23276 36.0753 4.00056 32.9743 6.35334 30.3416C8.70613 27.709 11.5905 25.6044 14.8164 24.1666C14.9442 24.1096 15.0724 24.0538 15.2011 23.999C15.1674 23.966 15.1339 23.9328 15.1005 23.8995Z" fill="white"/>
</svg>
