<svg width="50" height="50" viewBox="0 0 50 50" fill="none" xmlns="http://www.w3.org/2000/svg">
<path d="M21.5186 0H1.74068C0.786655 0 0 0.915511 0 2.04028V45.926C0 48.169 1.56773 50 3.47579 50H19.778C21.6916 50 23.2537 48.1624 23.2537 45.926V2.04028C23.2537 0.915511 22.4727 0 21.5186 0V0ZM9.75229 33.9066C9.75229 35.0249 8.97121 35.9469 8.0116 35.9469H5.48985C4.53582 35.9469 3.74916 35.0314 3.74916 33.9066V30.9508C3.74916 29.8326 4.53024 28.9105 5.48985 28.9105H8.0116C8.96563 28.9105 9.75229 29.8261 9.75229 30.9508V33.9066ZM9.75229 22.4758C9.75229 23.594 8.97121 24.5161 8.0116 24.5161H5.48985C4.53582 24.5161 3.74916 23.6006 3.74916 22.4758V19.52C3.74916 18.4018 4.53024 17.4797 5.48985 17.4797H8.0116C8.96563 17.4797 9.75229 18.3952 9.75229 19.52V22.4758ZM9.75229 11.045C9.75229 12.1632 8.97121 13.0853 8.0116 13.0853H5.48985C4.53582 13.0853 3.74916 12.1698 3.74916 11.045V8.0892C3.74916 6.97097 4.53024 6.04891 5.48985 6.04891H8.0116C8.96563 6.04891 9.75229 6.96443 9.75229 8.0892V11.045ZM19.5046 33.9066C19.5046 35.0249 18.7235 35.9469 17.7639 35.9469H15.2421C14.2881 35.9469 13.5015 35.0314 13.5015 33.9066V30.9508C13.5015 29.8326 14.2825 28.9105 15.2421 28.9105H17.7639C18.7179 28.9105 19.5046 29.8261 19.5046 30.9508V33.9066ZM19.5046 22.4758C19.5046 23.594 18.7235 24.5161 17.7639 24.5161H15.2421C14.2881 24.5161 13.5015 23.6006 13.5015 22.4758V19.52C13.5015 18.4018 14.2825 17.4797 15.2421 17.4797H17.7639C18.7179 17.4797 19.5046 18.3952 19.5046 19.52V22.4758ZM19.5046 11.045C19.5046 12.1632 18.7235 13.0853 17.7639 13.0853H15.2421C14.2881 13.0853 13.5015 12.1698 13.5015 11.045V8.0892C13.5015 6.97097 14.2825 6.04891 15.2421 6.04891H17.7639C18.7179 6.04891 19.5046 6.96443 19.5046 8.0892V11.045ZM46.5131 50H45.9663C44.0471 50 42.4905 48.1755 42.4905 45.926V40.8907C42.4905 38.6411 40.9339 36.8166 39.0147 36.8166H38.0942C36.175 36.8166 34.6184 38.6411 34.6184 40.8907V45.926C34.6184 48.1755 33.0618 50 31.1426 50H30.222C28.3028 50 26.7463 48.1755 26.7463 45.926V27.7792C26.7463 25.5297 28.3028 23.7052 30.222 23.7052H46.5242C48.4434 23.7052 50 25.5297 50 27.7792V45.926C49.9888 48.1755 48.4323 50 46.5131 50V50ZM48.1143 21.1483H28.6097C27.572 21.1483 26.7351 20.1609 26.7351 18.9511C26.7351 17.7348 27.5775 16.7539 28.6097 16.7539H48.1143C49.152 16.7539 49.9888 17.7413 49.9888 18.9511C49.9888 20.1609 49.152 21.1483 48.1143 21.1483Z" fill="white"/>
</svg>
