<svg width="50" height="50" viewBox="0 0 50 50" fill="none" xmlns="http://www.w3.org/2000/svg">
<path fill-rule="evenodd" clip-rule="evenodd" d="M46.7321 22.2321C47.0636 21.9005 47.5133 21.7143 47.9821 21.7143C48.451 21.7143 48.9007 21.9005 49.2322 22.2321C49.5637 22.5636 49.75 23.0133 49.75 23.4821V27.0179C49.75 27.4867 49.5637 27.9364 49.2322 28.2679C48.9007 28.5995 48.451 28.7857 47.9821 28.7857C47.5133 28.7857 47.0636 28.5995 46.7321 28.2679C46.4005 27.9364 46.2143 27.4867 46.2143 27.0179H42.5681C42.2367 30.4688 40.8911 33.7444 38.7009 36.4317L41.2311 38.9785C41.5646 38.6553 42.0119 38.4763 42.4763 38.4802C42.9407 38.4841 43.3849 38.6706 43.7129 38.9993C44.0409 39.3281 44.2264 39.7727 44.2293 40.2371C44.2321 40.7015 44.0522 41.1484 43.7282 41.4811L41.2311 43.9782C41.0681 44.1465 40.8732 44.2807 40.6578 44.373C40.4424 44.4652 40.2108 44.5138 39.9765 44.5157C39.7421 44.5177 39.5098 44.4731 39.2929 44.3844C39.076 44.2958 38.8788 44.1649 38.7129 43.9994C38.5471 43.8339 38.4158 43.637 38.3266 43.4203C38.2375 43.2036 38.1924 42.9713 38.1938 42.737C38.1953 42.5027 38.2433 42.271 38.3351 42.0554C38.4269 41.8398 38.5606 41.6446 38.7285 41.4811L36.1596 38.9067C33.4837 41.1088 30.2159 42.4698 26.7679 42.8181V46.4643C27.2367 46.4643 27.6864 46.6505 28.0179 46.9821C28.3495 47.3136 28.5357 47.7633 28.5357 48.2321C28.5357 48.701 28.3495 49.1507 28.0179 49.4822C27.6864 49.8137 27.2367 50 26.7679 50H23.2321C22.7633 50 22.3136 49.8137 21.9821 49.4822C21.6505 49.1507 21.4643 48.701 21.4643 48.2321C21.4643 47.7633 21.6505 47.3136 21.9821 46.9821C22.3136 46.6505 22.7633 46.4643 23.2321 46.4643V42.8181C19.7894 42.4805 16.5226 41.1354 13.8404 38.9509L11.2494 41.4811C11.4138 41.6449 11.5442 41.8395 11.6332 42.0537C11.7221 42.268 11.768 42.4977 11.768 42.7297C11.768 42.9617 11.7221 43.1914 11.6332 43.4057C11.5442 43.6199 11.4138 43.8145 11.2494 43.9782C11.0863 44.1435 10.8918 44.2745 10.6774 44.3637C10.463 44.4529 10.233 44.4984 10.0008 44.4975C9.76785 44.4982 9.53706 44.4526 9.3218 44.3635C9.10654 44.2743 8.91109 44.1434 8.74676 43.9782L6.24967 41.4811C5.92574 41.1484 5.74576 40.7015 5.74863 40.2371C5.7515 39.7727 5.93699 39.3281 6.26501 38.9993C6.59303 38.6706 7.03723 38.4841 7.50162 38.4802C7.966 38.4763 8.41327 38.6553 8.74676 38.9785L11.3212 36.4096C9.11908 33.7337 7.75813 30.4659 7.40982 27.0179H3.78571C3.78571 27.4867 3.59946 27.9364 3.26792 28.2679C2.93638 28.5995 2.48672 28.7857 2.01786 28.7857C1.54899 28.7857 1.09933 28.5995 0.767793 28.2679C0.436256 27.9364 0.25 27.4867 0.25 27.0179V23.4821C0.25 23.0133 0.436256 22.5636 0.767793 22.2321C1.09933 21.9005 1.54899 21.7143 2.01786 21.7143C2.48672 21.7143 2.93638 21.9005 3.26792 22.2321C3.59946 22.5636 3.78571 23.0133 3.78571 23.4821H7.40982C7.75848 20.0352 9.11725 16.768 11.3157 14.0904L8.76886 11.4994C8.60541 11.6673 8.41022 11.801 8.19462 11.8928C7.97902 11.9846 7.74733 12.0326 7.513 12.0341C7.27868 12.0355 7.04641 11.9904 6.82969 11.9013C6.61298 11.8121 6.41614 11.6808 6.25063 11.515C6.08512 11.3491 5.95424 11.152 5.86559 10.935C5.77695 10.7181 5.73231 10.4858 5.73428 10.2514C5.73625 10.0171 5.78478 9.78553 5.87705 9.57014C5.96932 9.35474 6.10349 9.15984 6.27176 8.99676L8.76886 6.49967C9.10164 6.17574 9.54851 5.99576 10.0129 5.99863C10.4773 6.0015 10.9219 6.18699 11.2507 6.51501C11.5794 6.84303 11.7659 7.28723 11.7698 7.75162C11.7737 8.216 11.5947 8.66327 11.2715 8.99676L13.8404 11.5657C16.518 9.36725 19.7852 8.00848 23.2321 7.65982V4.03571C22.7633 4.03571 22.3136 3.84946 21.9821 3.51792C21.6505 3.18638 21.4643 2.73672 21.4643 2.26786C21.4643 1.79899 21.6505 1.34933 21.9821 1.01779C22.3136 0.686256 22.7633 0.5 23.2321 0.5H26.8065C27.2754 0.5 27.7251 0.686256 28.0566 1.01779C28.3881 1.34933 28.5744 1.79899 28.5744 2.26786C28.5744 2.73672 28.3881 3.18638 28.0566 3.51792C27.7251 3.84946 27.2754 4.03571 26.8065 4.03571V7.68192C30.2545 8.03023 33.5223 9.39117 36.1983 11.5933L38.7672 9.01886C38.444 8.68537 38.265 8.2381 38.2689 7.77372C38.2728 7.30933 38.4593 6.86513 38.788 6.53711C39.1168 6.20909 39.5614 6.0236 40.0258 6.02073C40.4902 6.01786 40.937 6.19783 41.2698 6.52176L43.7669 9.01886C44.0908 9.35164 44.2708 9.79851 44.2679 10.2629C44.2651 10.7273 44.0796 11.1719 43.7516 11.5007C43.4235 11.8294 42.9793 12.0159 42.515 12.0198C42.0506 12.0237 41.6033 11.8447 41.2698 11.5215L38.7009 14.0904C40.8854 16.7726 42.2305 20.0394 42.5681 23.4821H46.2143C46.2143 23.0133 46.4005 22.5636 46.7321 22.2321ZM18.1559 25.9226C18.9554 26.4568 19.8953 26.7419 20.8569 26.7419C22.1458 26.7404 23.3815 26.2278 24.2929 25.3164C25.2043 24.405 25.717 23.1692 25.7185 21.8803C25.7185 20.9188 25.4333 19.9788 24.8991 19.1793C24.3649 18.3799 23.6057 17.7567 22.7173 17.3888C21.829 17.0208 20.8515 16.9245 19.9084 17.1121C18.9654 17.2997 18.0991 17.7627 17.4192 18.4426C16.7393 19.1225 16.2763 19.9888 16.0887 20.9319C15.9011 21.8749 15.9974 22.8524 16.3653 23.7408C16.7333 24.6291 17.3564 25.3884 18.1559 25.9226ZM19.6292 20.0429C19.9926 19.8001 20.4198 19.6705 20.8569 19.6705C21.4429 19.6705 22.005 19.9033 22.4194 20.3177C22.8339 20.7321 23.0667 21.2942 23.0667 21.8803C23.0667 22.3174 22.9371 22.7446 22.6943 23.108C22.4514 23.4714 22.1063 23.7547 21.7025 23.9219C21.2987 24.0892 20.8544 24.1329 20.4257 24.0477C19.9971 23.9624 19.6033 23.7519 19.2943 23.4429C18.9852 23.1338 18.7748 22.7401 18.6895 22.3114C18.6042 21.8828 18.648 21.4384 18.8153 21.0346C18.9825 20.6308 19.2657 20.2857 19.6292 20.0429ZM24.8898 32.3215C24.8898 33.1274 25.2099 33.9002 25.7797 34.47C26.3496 35.0399 27.1224 35.36 27.9283 35.36C28.7342 35.36 29.507 35.0399 30.0768 34.47C30.6467 33.9002 30.9668 33.1274 30.9668 32.3215C30.9668 31.5156 30.6467 30.7428 30.0768 30.173C29.507 29.6031 28.7342 29.283 27.9283 29.283C27.1224 29.283 26.3496 29.6031 25.7797 30.173C25.2099 30.7428 24.8898 31.5156 24.8898 32.3215ZM33.2451 25.1806C32.8825 24.818 32.6788 24.3262 32.6788 23.8133C32.6788 23.3005 32.8825 22.8087 33.2451 22.4461C33.6077 22.0835 34.0996 21.8797 34.6124 21.8797C35.1252 21.8797 35.617 22.0835 35.9796 22.4461C36.3423 22.8087 36.546 23.3005 36.546 23.8133C36.546 24.3262 36.3423 24.818 35.9796 25.1806C35.617 25.5432 35.1252 25.7469 34.6124 25.7469C34.0996 25.7469 33.6077 25.5432 33.2451 25.1806ZM28.8672 13.7033C28.8672 14.0403 29.0011 14.3635 29.2394 14.6018C29.4776 14.8401 29.8008 14.974 30.1378 14.974C30.4748 14.974 30.798 14.8401 31.0363 14.6018C31.2746 14.3635 31.4085 14.0403 31.4085 13.7033C31.4085 13.3663 31.2746 13.0431 31.0363 12.8049C30.798 12.5666 30.4748 12.4327 30.1378 12.4327C29.8008 12.4327 29.4776 12.5666 29.2394 12.8049C29.0011 13.0431 28.8672 13.3663 28.8672 13.7033ZM16.2633 33.6002C16.0561 33.393 15.9397 33.112 15.9397 32.8189C15.9397 32.5259 16.0561 32.2448 16.2633 32.0376C16.4705 31.8304 16.7515 31.714 17.0446 31.714C17.3376 31.714 17.6187 31.8304 17.8259 32.0376C18.0331 32.2448 18.1495 32.5259 18.1495 32.8189C18.1495 33.112 18.0331 33.393 17.8259 33.6002C17.6187 33.8074 17.3376 33.9238 17.0446 33.9238C16.7515 33.9238 16.4705 33.8074 16.2633 33.6002Z" fill="white"/>
</svg>
