<svg width="50" height="50" viewBox="0 0 50 50" fill="none" xmlns="http://www.w3.org/2000/svg">
<path fill-rule="evenodd" clip-rule="evenodd" d="M6.56697 0.00208155C4.59228 0.0399528 2.66757 0.98956 1.45301 2.50215C0.488911 3.67785 -0.0306208 5.18648 0.00134143 6.6889C0.00134143 9.7642 0.00130513 12.8395 0.00126882 15.9148C0.00115989 25.142 0.00105096 34.369 0.00192269 43.5958C0.0309793 44.7608 0.386632 45.9161 1.02239 46.9042C2.03821 48.4999 3.78567 49.6354 5.69527 49.9203C6.17565 50.0038 6.66276 50.001 7.14914 49.9982C7.28528 49.9974 7.42136 49.9966 7.55722 49.9977C11.063 49.9977 14.5688 49.9978 18.0746 49.9979C25.0864 49.998 32.0982 49.9981 39.1098 49.9977C40.4086 50.0311 41.7121 49.6773 42.8127 49.0074C44.4248 48.0381 45.5813 46.383 45.8974 44.5641C46.006 44.0233 46.0023 43.4736 45.9986 42.9249C45.9976 42.7721 45.9965 42.6194 45.9979 42.467C45.9979 41.6352 45.998 40.8033 45.9981 39.9715C45.9982 38.3078 45.9983 36.6441 45.9979 34.9804C45.9328 34.9352 45.8683 34.8905 45.8056 34.8464C44.7612 35.8614 43.7174 36.8768 42.6736 37.8921C41.4806 39.0525 40.2877 40.213 39.0941 41.3727C38.1637 42.2511 36.7858 42.6547 35.5131 42.4009C34.4967 42.2115 33.5693 41.6214 32.9817 40.7939C32.8867 40.6521 32.7628 40.5342 32.6394 40.4168C32.5975 40.3769 32.5557 40.3372 32.5151 40.2965C32.417 40.2011 32.3189 40.1057 32.2209 40.0103C31.9269 39.7242 31.633 39.4383 31.3389 39.153C29.9023 40.5484 28.467 41.9449 27.0319 43.3414C26.7933 43.5735 26.5547 43.8057 26.3162 44.0378C25.8402 44.5206 25.2352 44.8829 24.5757 45.0734C23.7092 45.3288 22.7538 45.2825 21.9176 44.9467C21.0499 44.6003 20.3154 43.9536 19.8604 43.1578C19.3495 42.2647 19.2258 41.1726 19.5233 40.1931C19.7186 39.5255 20.1143 38.9258 20.6216 38.4419C22.1806 36.9242 23.7404 35.4072 25.3003 33.8901C26.1914 33.0234 27.0826 32.1567 27.9735 31.2899C28.0093 31.2553 28.045 31.2204 28.0808 31.1856C28.3747 30.899 28.6702 30.6109 29.0178 30.3867C29.7204 29.9051 30.5805 29.6417 31.4412 29.662C32.4512 29.6767 33.4449 30.0843 34.1672 30.7693C34.496 31.087 34.8234 31.406 35.1508 31.725C35.5528 32.1165 35.9548 32.5081 36.3593 32.8975C37.2271 32.055 38.0938 31.2116 38.9605 30.3682C39.3318 30.0069 39.7031 29.6457 40.0744 29.2845C39.2824 28.4648 38.8692 27.3016 39.0116 26.1813C39.0941 25.4318 39.412 24.7105 39.9042 24.1289C40.5521 23.3534 41.5151 22.8339 42.5355 22.7146C42.7965 22.6787 43.0598 22.6804 43.3228 22.6821C43.4113 22.6827 43.4997 22.6833 43.588 22.6824C43.8803 22.6822 44.1726 22.6823 44.4649 22.6824C44.9761 22.6826 45.4872 22.6827 45.9985 22.6813C45.9978 19.7018 45.9979 16.722 45.998 13.7424C45.9981 11.5051 45.9982 9.26795 45.9979 7.03087C45.9972 6.9419 45.9977 6.85286 45.9982 6.76381C45.9997 6.49135 46.0011 6.21881 45.9683 5.94786C45.8881 5.11074 45.6382 4.29001 45.2401 3.54389C44.3155 1.79673 42.5489 0.497799 40.5643 0.124739C39.9515 -0.00713968 39.3254 -0.00285043 38.701 0.00142783C38.5279 0.00261398 38.3548 0.00379929 38.1823 0.00208155H6.56697ZM7.20679 11.6619C7.19982 11.0791 7.63567 10.5275 8.21738 10.3873C8.32315 10.3596 8.4324 10.3477 8.54224 10.346H35.6276C36.3389 10.3392 36.9753 10.9633 36.9497 11.6568C36.9706 12.3266 36.3738 12.9399 35.6863 12.9597H35.6749C26.6113 12.9603 17.5477 12.9608 8.48412 12.9591C7.79316 12.9433 7.20098 12.3311 7.20679 11.6619ZM7.42995 21.9465C7.61707 21.6639 7.92682 21.4643 8.26271 21.3942C8.33593 21.3795 8.41032 21.3711 8.48528 21.3688C12.1466 21.3677 15.8078 21.3679 19.4691 21.3681C23.4974 21.3684 27.5256 21.3686 31.5539 21.3671C31.9944 21.362 32.4326 21.5859 32.6714 21.947C32.955 22.3568 32.9684 22.926 32.7074 23.35C32.4767 23.74 32.0223 23.996 31.558 23.983C27.0126 23.982 22.4675 23.9822 17.9223 23.9824C14.8939 23.9826 11.8654 23.9827 8.83687 23.9825C8.79162 23.9821 8.74614 23.9827 8.70058 23.9832C8.52677 23.9853 8.35186 23.9874 8.18426 23.9395C7.85359 23.8519 7.56129 23.6354 7.39101 23.3455C7.13125 22.9227 7.14694 22.3552 7.42995 21.9465ZM7.24224 33.3576C7.35092 32.8822 7.77165 32.4967 8.26213 32.4085C8.39264 32.3863 8.52454 32.388 8.65648 32.3896C8.6955 32.3901 8.73453 32.3906 8.77353 32.3905C12.7839 32.3905 16.7943 32.3905 20.8047 32.3899C21.2847 32.3882 21.7485 32.6787 21.9501 33.101C22.0803 33.3565 22.0983 33.6521 22.0628 33.9313C22.0018 34.3903 21.6526 34.7984 21.201 34.9425C21.02 35.0101 20.8257 35.0077 20.6341 35.0055C20.5931 35.005 20.5523 35.0045 20.5118 35.0047C18.7954 35.0049 17.079 35.0049 15.3626 35.0048C13.0715 35.0047 10.7804 35.0046 8.48935 35.0053C8.02619 35.0121 7.58569 34.7396 7.3637 34.3502C7.19459 34.05 7.17076 33.6877 7.24224 33.3576ZM42.6171 24.9999C41.9562 24.9971 41.3581 25.5247 41.3023 26.1489C41.2337 26.6519 41.5113 27.1727 41.9738 27.4217C42.2027 27.5507 42.4715 27.6004 42.7356 27.597C43.6178 27.5959 44.5006 27.5965 45.3828 27.597C44.7825 28.168 44.1824 28.739 43.5822 29.3101C41.1773 31.5981 38.7725 33.8861 36.3661 36.1727C35.7733 35.6091 35.1808 35.0454 34.5882 34.4817C33.8009 33.7327 33.0135 32.9838 32.2258 32.2352C31.7592 31.7947 30.9498 31.755 30.438 32.147C30.2766 32.273 30.1306 32.4149 29.9844 32.5569C29.9073 32.6318 29.8301 32.7068 29.7507 32.7795C28.8344 33.6516 27.9176 34.5233 27.0008 35.3951C25.472 36.8487 23.9431 38.3023 22.4168 39.7579C21.9989 40.1398 21.8745 40.779 22.1386 41.2725C22.3828 41.7688 22.9867 42.0697 23.5549 41.986C23.8437 41.9469 24.1201 41.8218 24.3261 41.6242C25.3047 40.6918 26.2843 39.7606 27.264 38.8293C28.6002 37.5591 29.9364 36.2889 31.2697 35.0159C31.6909 35.4142 32.1127 35.8118 32.5345 36.2094C33.5006 37.12 34.4668 38.0307 35.4253 38.949C35.9095 39.4135 36.7746 39.4257 37.2753 38.9786C38.803 37.5265 40.33 36.0738 41.857 34.6212C43.6604 32.9055 45.4639 31.1898 47.2686 29.4751C47.2703 29.8312 47.2698 30.1875 47.2692 30.5438C47.2684 31.0297 47.2676 31.5158 47.2727 32.0018C47.2774 32.3736 47.4547 32.7382 47.7564 32.976C48.1185 33.2808 48.6585 33.359 49.1099 33.206C49.6269 33.0324 50.012 32.5338 49.9997 32.0079C49.998 30.9323 49.9982 29.8566 49.9984 28.7809C49.9985 27.9199 49.9987 27.0589 49.9979 26.198C49.9709 25.5694 49.3857 25.0183 48.7236 25.0016C47.5927 25 46.4617 25.0002 45.3307 25.0004C44.4262 25.0005 43.5216 25.0007 42.6171 24.9999Z" fill="white"/>
</svg>
