<svg width="50" height="50" viewBox="0 0 50 50" fill="none" xmlns="http://www.w3.org/2000/svg">
<path fill-rule="evenodd" clip-rule="evenodd" d="M29.9788 19.6343C26.0909 22.9816 23.5216 28.6948 23.5216 35.1732C23.5216 41.2198 25.7687 46.5886 29.2298 50H0.00436548C0.00436548 50 -0.128103 43.6456 1.06302 42.1406C1.22391 41.9599 1.3848 41.7578 1.55776 41.5405C2.66528 40.1493 4.26769 38.1365 9.53392 37.1238C14.825 36.1062 14.9178 32.9417 14.9383 32.2404C14.9414 32.1347 14.9429 32.085 14.9602 32.1069C14.9602 30.6013 14.8278 28.4276 14.8278 28.4276C13.3717 27.2567 12.1806 25.5844 11.5188 23.4107C9.87032 22.5775 9.7732 21.975 9.63607 21.1244C9.60804 20.9505 9.57834 20.7662 9.53338 20.5675C9.53338 20.5675 9.00405 15.2166 10.3276 15.384C10.3276 15.384 11.1219 15.384 10.857 14.2131V14.2131C10.857 12.2067 10.857 8.36007 10.9894 7.18989C11.1219 5.85233 11.9156 2.17301 14.0335 1.50424C14.6953 1.33756 15.4896 1.17019 16.1514 1.17019C16.3949 1.1086 16.5309 1.00177 16.6714 0.891341C16.9128 0.701688 17.1678 0.501412 18.0043 0.501412L20.9159 0C21.6365 0 22.2393 0.743531 22.7885 1.42098C23.2481 1.98784 23.6702 2.50844 24.0924 2.50844C24.8861 2.34176 25.6804 2.34176 26.4746 2.50844C28.2446 2.92747 28.3503 5.68241 28.4146 7.35741C28.4272 7.68669 28.4383 7.97423 28.46 8.19409C28.5925 10.2004 28.5925 12.2075 28.46 14.3812C28.1951 15.552 28.8569 15.3847 28.8569 15.3847C30.0164 15.3847 30.0469 18.1424 29.9788 19.6343ZM27 36C27 28.8196 32.1481 23 38.5 23C44.8518 23 50 28.8203 50 36.0007C50 43.179 44.8518 49 38.5 49C32.1481 49 27 43.1783 27 36ZM36.915 38.1922C38.9049 38.1922 40.5992 38.5717 41.9999 39.3306C43.4005 40.0895 44.5915 41.2716 45.5746 42.8754C45.1323 40.2689 44.2845 38.1203 43.0319 36.4298C41.5086 34.425 39.4698 33.2074 36.915 32.7775V29.1252L31.4248 35.5278L36.915 41.9305V38.1922Z" fill="white"/>
</svg>
