<svg width="50" height="50" viewBox="0 0 50 50" fill="none" xmlns="http://www.w3.org/2000/svg">
<path fill-rule="evenodd" clip-rule="evenodd" d="M13.0754 22.1924C11.1062 19.7544 10 16.4478 10 13C10 9.55219 11.1062 6.24558 13.0754 3.80761C15.0445 1.36964 17.7152 0 20.5 0C23.2848 0 25.9555 1.36964 27.9246 3.80761C29.8938 6.24558 31 9.55219 31 13C31 16.4478 29.8938 19.7544 27.9246 22.1924C26.7416 23.6571 25.3054 24.7362 23.7433 25.3643C26.688 25.9859 29.4848 27.404 31.9313 29.5176L23.6211 49.1272C23.4919 49.3998 23.3951 49.6937 23.3335 50H0C-0.000213281 44.0585 1.72009 38.3112 4.85238 33.7889C7.98468 29.2666 12.3241 26.2651 17.0923 25.3227L20.3145 29.2869L23.4002 25.4943C22.4655 25.8269 21.4899 26 20.5 26C17.7152 26 15.0445 24.6304 13.0754 22.1924ZM16.836 42.1523L20.3145 46.4318L23.793 42.1562L20.3145 29.3061L16.836 42.1523ZM41.1134 25.8533L49.7237 46.1934C49.9048 46.5793 50.0001 47.0171 50 47.4627C49.9999 47.9083 49.9045 48.346 49.7233 48.7318C49.5421 49.1177 49.2815 49.438 48.9678 49.6606C48.654 49.8832 48.2982 50.0003 47.936 50H29.0654C28.7032 50.0003 28.3473 49.8832 28.0336 49.6606C27.7198 49.438 27.4592 49.1177 27.278 48.7318C27.0968 48.346 27.0014 47.9083 27.0013 47.4627C27.0013 47.0171 27.0966 46.5793 27.2777 46.1934L33.6471 31.1594L35.8879 25.8533C36.1531 25.2897 36.5341 24.8218 36.9927 24.4965C37.4513 24.1712 37.9713 24 38.5007 24C39.03 24 39.55 24.1712 40.0086 24.4965C40.4672 24.8218 40.8482 25.2897 41.1134 25.8533ZM39.2654 45.7875C39.4986 45.6069 39.6845 45.3473 39.8008 45.0399V45.0438C39.8786 44.8361 39.9212 44.611 39.9258 44.3824C39.9296 44.0038 39.8327 43.634 39.6499 43.3293C39.4671 43.0246 39.2084 42.8017 38.9132 42.6945C38.7702 42.6426 38.6216 42.618 38.4725 42.6214C38.3454 42.6243 38.2192 42.6488 38.0975 42.6945C37.8123 42.7969 37.5607 43.0074 37.3783 43.2959C37.196 43.5845 37.0922 43.9364 37.0818 44.3017C37.0778 44.5418 37.1151 44.7803 37.1912 45.0015C37.3014 45.3122 37.4822 45.5772 37.7119 45.7646C37.9416 45.952 38.2103 46.0538 38.4859 46.0579C38.7615 46.0619 39.0321 45.968 39.2654 45.7875ZM39.7383 40.7835L40.6759 34.8083V34.8122C40.7151 34.5562 40.6894 34.2916 40.6021 34.0543C40.5149 33.817 40.3704 33.6185 40.1883 33.4856C40.0347 33.3755 39.8598 33.3183 39.682 33.3203H37.3318C37.1541 33.3193 36.9794 33.3763 36.8255 33.4856C36.6698 33.5962 36.5407 33.7555 36.4513 33.9472C36.3618 34.139 36.3152 34.3565 36.3161 34.5776C36.3098 34.6505 36.3098 34.7239 36.3161 34.7968L37.2537 40.772C37.2743 40.9186 37.3365 41.0516 37.4291 41.1473C37.5218 41.243 37.639 41.2952 37.76 41.2949H39.232C39.2725 41.3005 39.3134 41.3005 39.3539 41.2949C39.4527 41.2679 39.5424 41.2045 39.6111 41.1131C39.6798 41.0217 39.7242 40.9067 39.7383 40.7835Z" fill="white"/>
</svg>
