<svg width="50" height="50" viewBox="0 0 50 50" fill="none" xmlns="http://www.w3.org/2000/svg">
<path d="M47.8846 45.6751H43.9223V20.4426C43.9247 17.7132 43.4078 15.0119 42.4032 12.5035C40.436 7.59487 36.7696 3.69305 32.1736 1.61687C29.8363 0.546641 27.3202 -0.00345558 24.7782 1.63326e-05C21.0103 0.00359656 17.326 1.1899 14.181 3.41217C11.0361 5.63445 8.5685 8.79522 7.08346 12.5035C6.07886 15.0164 5.56202 17.7218 5.56436 20.4553L5.60517 45.6779H1.91931C1.39522 45.7057 0.901829 45.9509 0.543639 46.3616C0.185449 46.7722 -0.00940438 47.316 0.000349279 47.8778C0.0101029 48.4396 0.223698 48.9753 0.595893 49.3714C0.968088 49.7675 1.46965 49.9929 1.99435 49.9998H47.9557C48.2261 50.0034 48.4945 49.9488 48.7448 49.8392C48.9951 49.7296 49.2224 49.5673 49.413 49.3619C49.6036 49.1565 49.7538 48.9121 49.8546 48.6434C49.9553 48.3747 50.0047 48.087 49.9997 47.7974C49.9946 47.5079 49.9353 47.2223 49.8253 46.9578C49.7153 46.6933 49.5567 46.4551 49.3591 46.2574C49.1615 46.0597 48.9288 45.9065 48.6748 45.807C48.4208 45.7074 48.1508 45.6635 47.8807 45.6779L47.8846 45.6751ZM23.6962 43.5691V28.3281H16.5456L26.3671 8.72144V24.6926H33.2728L23.6962 43.5691Z" fill="white"/>
</svg>
