<svg width="50" height="50" viewBox="0 0 50 50" fill="none" xmlns="http://www.w3.org/2000/svg">
<path d="M46.3481 29.7975C43.6289 25.2538 45.2642 19.4311 50 16.7854L44.907 8.275C43.4518 9.09795 41.76 9.56982 39.9547 9.56982C34.5119 9.56982 30.0999 5.28535 30.0999 0H19.9135C19.927 1.63135 19.5049 3.28525 18.5997 4.79746C15.8805 9.34121 9.83569 10.8864 5.09292 8.25244L0 16.7628C1.46627 17.5671 2.73565 18.7446 3.63839 20.2529C6.35319 24.7895 4.72718 30.6006 0.00900924 33.2521L5.10203 41.7625C6.5521 40.9473 8.2358 40.4806 10.0318 40.4806C15.4573 40.4806 19.858 44.738 19.8862 50H30.0723C30.068 48.3851 30.491 46.7495 31.3865 45.253C34.1012 40.7166 40.1313 39.1693 44.8706 41.7856L49.9637 33.2754C48.507 32.4714 47.2461 31.2979 46.3481 29.7975V29.7975ZM24.9999 35.1237C19.2043 35.1237 14.506 30.5913 14.506 25C14.506 19.4088 19.2042 14.8763 24.9999 14.8763C30.7957 14.8763 35.4937 19.4088 35.4937 25C35.4936 30.5913 30.7956 35.1237 24.9999 35.1237Z" fill="white"/>
</svg>
