<svg width="100" height="100" viewBox="0 0 100 100" fill="none" xmlns="http://www.w3.org/2000/svg">
<rect width="100" height="100" fill="white"/>
<path fill-rule="evenodd" clip-rule="evenodd" d="M52 10.8262L84.9423 29.8454V67.578L93.6025 71.876V24.8454L52 0.826172V10.8262ZM48 11.174V1.17405L7 24.8454V72.1797L15.6603 67.8817V29.8454L48 11.174ZM82.895 71.0274L92.2091 75.6499L50.3013 99.8454L8.67634 75.8132L17.9904 71.1907L50.3013 89.8454L82.895 71.0274Z" fill="#597FFE"/>
<path d="M25 30L36.087 69H42.8473L50.4189 39.6681H50.6352L58.1527 69H64.859L76 30H68.8611L61.614 59.6597H61.3977L53.772 30H47.228L39.6023 59.6597H39.386L32.1389 30H25Z" fill="#597FFE"/>
</svg>
